<?xml version="1.0" encoding="UTF-8" standalone="no"?>
<svg
   width="16"
   height="16"
   fill="currentColor"
   class="bi bi-list"
   viewBox="0 0 16 16"
   version="1.1"
   id="svg1"
   sodipodi:docname="menu_burger.svg"
   inkscape:version="1.3.1 (9b9bdc1480, 2023-11-25, custom)"
   xmlns:inkscape="http://www.inkscape.org/namespaces/inkscape"
   xmlns:sodipodi="http://sodipodi.sourceforge.net/DTD/sodipodi-0.dtd"
   xmlns="http://www.w3.org/2000/svg"
   xmlns:svg="http://www.w3.org/2000/svg">
  <defs
     id="defs1" />
  <sodipodi:namedview
     id="namedview1"
     pagecolor="#ffffff"
     bordercolor="#000000"
     borderopacity="0.25"
     inkscape:showpageshadow="2"
     inkscape:pageopacity="0.0"
     inkscape:pagecheckerboard="0"
     inkscape:deskcolor="#d1d1d1"
     inkscape:zoom="36.062446"
     inkscape:cx="4.131722"
     inkscape:cy="8.7071188"
     inkscape:window-width="1920"
     inkscape:window-height="1016"
     inkscape:window-x="0"
     inkscape:window-y="1107"
     inkscape:window-maximized="1"
     inkscape:current-layer="svg1" />
  <path
     fill-rule="evenodd"
     d="M2.5 12a.5.5 0 0 1 .5-.5h10a.5.5 0 0 1 0 1H3a.5.5 0 0 1-.5-.5m0-4a.5.5 0 0 1 .5-.5h10a.5.5 0 0 1 0 1H3a.5.5 0 0 1-.5-.5m0-4a.5.5 0 0 1 .5-.5h10a.5.5 0 0 1 0 1H3a.5.5 0 0 1-.5-.5"
     id="path1"
     style="fill:#000000;fill-opacity:1" />
  <path
     style="fill:#000000;stroke-width:0.0196078"
     d="M 2.8520236,8.4642525 C 2.6929968,8.4028256 2.5859932,8.2938959 2.532749,8.1392309 2.4775157,7.9787879 2.5270266,7.7897948 2.6588168,7.6580046 2.821549,7.4952725 2.3086011,7.5089684 8.0299037,7.5145948 c 4.9973333,0.00491 5.0990523,0.00576 5.1740843,0.042988 0.178264,0.088448 0.276404,0.2455333 0.276404,0.4424169 0,0.1968836 -0.09814,0.3539686 -0.276404,0.4424169 -0.07506,0.037242 -0.17523,0.038042 -5.1843802,0.041443 -3.8772237,0.00263 -5.1222364,-0.00209 -5.1675842,-0.019607 z"
     id="path2" />
  <path
     style="fill:#000000;stroke-width:0.0196078"
     d="M 2.8520236,4.4642525 C 2.6929968,4.4028256 2.5859932,4.2938959 2.532749,4.1392309 2.4775157,3.9787879 2.5270266,3.7897948 2.6588168,3.6580046 2.821549,3.4952725 2.3086011,3.5089684 8.0299037,3.5145948 c 4.9973333,0.00491 5.0990523,0.00576 5.1740843,0.042988 0.178264,0.088448 0.276404,0.2455333 0.276404,0.4424169 0,0.1968836 -0.09814,0.3539686 -0.276404,0.4424169 -0.07506,0.037242 -0.17523,0.038042 -5.1843802,0.041444 -3.8772237,0.00263 -5.1222364,-0.00209 -5.1675842,-0.019608 z"
     id="path3" />
  <path
     style="fill:#aa0000;fill-opacity:1;stroke:#ad48ff;stroke-width:0.0138648;stroke-opacity:1"
     d="M 2.8557242,12.47096 C 2.8211712,12.46029 2.7593022,12.42795 2.7182378,12.3991 2.4107321,12.183044 2.4522949,11.723256 2.7945208,11.555226 l 0.082434,-0.04047 H 8.000012 13.12307 l 0.08243,0.04047 c 0.104985,0.05155 0.19388,0.140442 0.24103,0.24103 0.03153,0.06726 0.03702,0.0975 0.03702,0.203765 0,0.106261 -0.0055,0.136507 -0.03702,0.203765 -0.04715,0.100588 -0.136045,0.189483 -0.24103,0.24103 l -0.08243,0.04047 -5.1022607,0.0025 c -4.3386485,0.0022 -5.1116631,-3.65e-4 -5.1650851,-0.01687 z"
     id="path17" />
  <path
     style="fill:#ad48ff;fill-opacity:1;stroke:#ad48ff;stroke-width:0.0138648;stroke-opacity:1"
     d="m 5.438483,11.511283 c 1.408841,-0.0019 3.7142171,-0.0019 5.123058,0 1.408841,0.0019 0.256153,0.0035 -2.561529,0.0035 -2.8176819,0 -3.9703699,-0.0016 -2.561529,-0.0035 z"
     id="path18" />
  <path
     style="fill:#ad48ff;fill-opacity:1;stroke:#ad48ff;stroke-width:0.0138648;stroke-opacity:1"
     d="m 3.1958454,12.464959 -0.346621,-0.0074 -0.073533,-0.04074 c -0.09167,-0.05078 -0.1614755,-0.126988 -0.2088223,-0.227965 -0.030069,-0.06413 -0.036504,-0.09767 -0.036355,-0.189498 1.581e-4,-0.09763 0.00581,-0.123003 0.045195,-0.203014 0.052294,-0.106224 0.1214263,-0.173792 0.238048,-0.232663 l 0.083204,-0.042 h 5.1030514 5.1030515 l 0.07933,0.04035 c 0.113149,0.05755 0.185518,0.125268 0.23691,0.221688 0.0414,0.07768 0.04472,0.09372 0.04472,0.216302 0,0.122583 -0.0033,0.138624 -0.04472,0.216302 -0.05139,0.09642 -0.123761,0.16414 -0.23691,0.221688 l -0.07933,0.04035 -4.7802986,-0.003 c -2.6291643,-0.0016 -4.936278,-0.0063 -5.12692,-0.0104 z"
     id="path19" />
  <path
     style="fill:#ad48ff;fill-opacity:1;stroke:#ad48ff;stroke-width:0.0138648;stroke-opacity:1"
     d="M 2.9206351,8.4846681 C 2.7675178,8.4588269 2.6355993,8.3580559 2.5555306,8.2057692 2.5207901,8.1396944 2.5166036,8.1175561 2.5166205,8.000012 2.516638,7.8793252 2.5202852,7.8613114 2.5601782,7.7848817 2.6163308,7.6773008 2.7173852,7.5832552 2.822196,7.5410368 l 0.082488,-0.033227 h 5.095328 5.095328 l 0.07905,0.031941 c 0.104416,0.042189 0.203258,0.1332182 0.261709,0.2410216 0.04456,0.08218 0.04745,0.095564 0.04745,0.219239 0,0.123675 -0.0029,0.1370591 -0.04745,0.219239 -0.05845,0.1078035 -0.157293,0.1988325 -0.261709,0.2410216 l -0.07905,0.031941 -5.0537335,0.0019 C 5.262053,8.495163 2.9576158,8.490903 2.9206351,8.484663 Z"
     id="path20" />
  <path
     style="fill:#ad48ff;fill-opacity:1;stroke:#ad48ff;stroke-width:0.0138648;stroke-opacity:1"
     d="M 2.8557242,4.4709483 C 2.7664222,4.443365 2.6513533,4.3579631 2.5972617,4.2791226 2.4253541,4.0285606 2.5211139,3.6815335 2.797973,3.5517583 l 0.078981,-0.037022 h 5.123058 5.123058 l 0.08243,0.040474 c 0.104985,0.051547 0.19388,0.1404424 0.24103,0.2410304 0.03153,0.067257 0.03702,0.097504 0.03702,0.2037646 0,0.1062608 -0.0055,0.1365074 -0.03702,0.2037646 -0.04715,0.100588 -0.136045,0.1894833 -0.24103,0.2410304 l -0.08243,0.040474 -5.1022607,0.00254 C 3.6821608,4.4899732 2.9091462,4.487449 2.8557242,4.4709483 Z"
     id="path21" />
  <path
     style="fill:#ad48ff;fill-opacity:1;stroke:#ad48ff;stroke-width:0.0277297;stroke-opacity:1"
     d="M 2.7545784,4.3947558 C 2.627356,4.3184975 2.5229843,4.142119 2.5240097,4.0051159 2.5249665,3.8772713 2.6185641,3.7028868 2.7331266,3.6155039 l 0.1048438,-0.07997 5.1505083,-0.00715 5.1505083,-0.00715 0.117463,0.090338 c 0.138935,0.1068519 0.220173,0.2467836 0.220173,0.3792447 0,0.1531813 -0.100031,0.3262934 -0.233869,0.4047274 L 13.12513,4.4644781 7.9975757,4.4642158 2.8700216,4.4639534 Z"
     id="path22" />
  <path
     style="fill:#ad48ff;fill-opacity:1;stroke:#ad48ff;stroke-width:0.0277297;stroke-opacity:1"
     d="M 2.7378923,4.3942099 C 2.6810174,4.3555625 2.6094898,4.2749503 2.578942,4.2150717 2.471751,4.0049599 2.524655,3.7902315 2.7260937,3.6178074 l 0.112316,-0.096138 h 5.1616023 5.161602 l 0.119518,0.1023032 c 0.205442,0.1758499 0.250958,0.3943661 0.126413,0.6068865 -0.03799,0.064831 -0.111217,0.1439168 -0.162719,0.1757467 l -0.09364,0.057873 H 7.9962435 2.8413012 Z"
     id="path23" />
  <path
     style="fill:#ad48ff;fill-opacity:1;stroke:#ad48ff;stroke-width:0.0277297;stroke-opacity:1"
     d="M 2.7135775,4.3822508 C 2.5431767,4.241792 2.4803239,4.0281027 2.5527412,3.8354331 2.5688784,3.7924991 2.6338683,3.7043383 2.6971631,3.6395202 L 2.8122445,3.5216691 h 5.1795964 5.1795961 l 0.112794,0.1019023 c 0.158529,0.1432211 0.201009,0.2374875 0.186402,0.4136322 -0.0086,0.103315 -0.03419,0.1749344 -0.08768,0.2450605 -0.150997,0.1979673 0.316118,0.182214 -5.4029757,0.182214 H 2.8133335 Z"
     id="path24" />
  <path
     style="fill:#ad48ff;fill-opacity:1;stroke:#ad48ff;stroke-width:0.0277297;stroke-opacity:1"
     d="M 2.8814899,8.4587795 C 2.7583866,8.421473 2.662365,8.3431829 2.5915884,8.2224118 2.4611818,7.9998898 2.5322372,7.7446379 2.7658256,7.5965005 L 2.8947443,7.5147427 H 7.9960722 13.0974 l 0.11955,0.070061 c 0.146232,0.085697 0.259673,0.2670869 0.259673,0.4152082 0,0.1481213 -0.113441,0.3295112 -0.259673,0.4152082 L 13.0974,8.4852814 8.0253054,8.4828979 C 5.2356533,8.481587 2.9209363,8.4707337 2.8814899,8.4587795 Z"
     id="path25" />
  <path
     style="fill:#ad48ff;fill-opacity:1;stroke:#ad48ff;stroke-width:0.0277297;stroke-opacity:1"
     d="M 2.8292522,8.4413721 C 2.7011398,8.3858045 2.6396024,8.326953 2.5728511,8.1961624 2.4632111,7.9813367 2.5473241,7.7265095 2.7753968,7.5825334 l 0.1073876,-0.067791 h 5.1039165 c 4.9536051,0 5.1069461,0.00155 5.2067981,0.052509 0.374566,0.1911707 0.374566,0.6743507 0,0.8655214 -0.09987,0.050972 -0.25164,0.052477 -5.1854498,0.051423 -4.4629015,-9.531e-4 -5.0943004,-0.00617 -5.178797,-0.042824 z"
     id="path26" />
  <path
     style="fill:#ad48ff;fill-opacity:1;stroke:#ad48ff;stroke-width:0.0277297;stroke-opacity:1"
     d="m 7.2464087,12.450795 -4.413921,-0.01403 -0.078287,-0.05801 C 2.4745614,12.171544 2.482042,11.797274 2.7694661,11.614995 l 0.1252782,-0.07945 H 7.9960722 13.0974 l 0.117874,0.06908 c 0.275009,0.161165 0.319489,0.516774 0.09067,0.724906 -0.158642,0.144301 -0.19194,0.149312 -0.944066,0.142061 -0.385853,-0.0037 -2.6878159,-0.01308 -5.1154723,-0.0208 z"
     id="path27" />
  <path
     style="fill:#ad48ff;fill-opacity:1;stroke:#ad48ff;stroke-width:0.0277297;stroke-opacity:1"
     d="m 5.7765211,12.450874 -2.972192,-0.01411 -0.08748,-0.08319 C 2.5953569,12.23804 2.5511303,12.141834 2.5511303,11.993086 c 0,-0.16435 0.057218,-0.272001 0.1992631,-0.374898 l 0.1140844,-0.08264 h 5.1355342 5.135534 l 0.114085,0.08264 c 0.15941,0.115477 0.208015,0.221262 0.19355,0.421247 -0.01004,0.138764 -0.02552,0.176717 -0.106998,0.262292 -0.05239,0.05503 -0.135416,0.117282 -0.184493,0.13834 -0.09578,0.0411 -0.783546,0.04211 -7.3751689,0.01081 z"
     id="path28" />
</svg>
