<?xml version="1.0" encoding="UTF-8" standalone="no"?>
<svg
   width="16"
   height="16"
   fill="currentColor"
   class="bi bi-x"
   viewBox="0 0 16 16"
   version="1.1"
   id="svg1"
   sodipodi:docname="x.svg"
   inkscape:version="1.3.1 (9b9bdc1480, 2023-11-25, custom)"
   xmlns:inkscape="http://www.inkscape.org/namespaces/inkscape"
   xmlns:sodipodi="http://sodipodi.sourceforge.net/DTD/sodipodi-0.dtd"
   xmlns="http://www.w3.org/2000/svg"
   xmlns:svg="http://www.w3.org/2000/svg">
  <defs
     id="defs1" />
  <sodipodi:namedview
     id="namedview1"
     pagecolor="#ffffff"
     bordercolor="#000000"
     borderopacity="0.25"
     inkscape:showpageshadow="2"
     inkscape:pageopacity="0.0"
     inkscape:pagecheckerboard="0"
     inkscape:deskcolor="#d1d1d1"
     inkscape:zoom="51"
     inkscape:cx="8"
     inkscape:cy="8"
     inkscape:window-width="1920"
     inkscape:window-height="1016"
     inkscape:window-x="0"
     inkscape:window-y="1107"
     inkscape:window-maximized="1"
     inkscape:current-layer="svg1" />
  <path
     d="M4.646 4.646a.5.5 0 0 1 .708 0L8 7.293l2.646-2.647a.5.5 0 0 1 .708.708L8.707 8l2.647 2.646a.5.5 0 0 1-.708.708L8 8.707l-2.646 2.647a.5.5 0 0 1-.708-.708L7.293 8 4.646 5.354a.5.5 0 0 1 0-.708"
     id="path1" />
  <path
     style="fill:#ad48ff;stroke:#ad48ff;stroke-width:0.0196078"
     d="m 4.8283024,11.457559 c -0.1121101,-0.03968 -0.2477902,-0.178596 -0.287091,-0.293937 -0.039906,-0.117117 -0.039746,-0.209871 5.71e-4,-0.331698 0.029068,-0.08784 0.1561787,-0.221105 1.3966021,-1.4642769 L 7.303008,8 5.9383845,6.6323529 C 4.6979611,5.3891813 4.5708504,5.2559112 4.5417824,5.1680757 4.4779865,4.975302 4.5184812,4.7983403 4.6584107,4.6584107 4.7983403,4.5184812 4.975302,4.4779865 5.1680757,4.5417824 5.2559112,4.5708504 5.3891813,4.6979611 6.6323529,5.9383845 L 8,7.303008 9.3676471,5.9383845 C 10.610819,4.6979611 10.744089,4.5708504 10.831924,4.5417824 c 0.192774,-0.063796 0.369736,-0.023301 0.509665,0.1166283 0.13993,0.1399296 0.180425,0.3168913 0.116629,0.509665 -0.02907,0.087835 -0.156179,0.2211056 -1.396603,1.4642772 L 8.696992,8 10.061615,9.3676471 c 1.240424,1.2431719 1.367535,1.3764419 1.396603,1.4642769 0.0638,0.192774 0.0233,0.369736 -0.116629,0.509665 -0.139929,0.13993 -0.316891,0.180425 -0.509665,0.116629 -0.08784,-0.02907 -0.221105,-0.156179 -1.4642769,-1.396603 L 8,8.696992 6.6323529,10.061615 c -1.2431716,1.240424 -1.3764417,1.367535 -1.4642772,1.396603 -0.1174823,0.03888 -0.2286756,0.03866 -0.3397733,-6.59e-4 z"
     id="path2" />
</svg>
